<?xml version="1.0" standalone="no"?><!DOCTYPE svg PUBLIC "-//W3C//DTD SVG 1.1//EN" "http://www.w3.org/Graphics/SVG/1.1/DTD/svg11.dtd"><svg t="1739869840208" class="icon" viewBox="0 0 1609 1024" version="1.1" xmlns="http://www.w3.org/2000/svg" p-id="14932" width="50.28125" height="32" xmlns:xlink="http://www.w3.org/1999/xlink"><path d="M803.62849 328.109c-141.555 0-283.11-0.308-424.653 0.114-85.313 0.262-170.627 1.664-255.94 2.565q-2.588 0-5.176 0.148c-13.055 0.605-17.375-1.14-17.98-8.904-1.425-18.321-0.524-23.406 12.655-27.282 35.674-10.5 71.53-20.431 107.17-30.931 82.69-24.341 165.052-49.754 247.287-75.589q152.978-48.055 306.139-95.494a117.088 117.088 0 0 1 70.595 2.006c108.96 33.713 218.568 65.237 327.904 97.672 108.15 32.083 215.991 65.168 323.115 100.523a21.058 21.058 0 0 1 13.68 30.623 11.8 11.8 0 0 1-12.392 7.4c-39.698-0.411-79.396-0.72-119.106-1.141-42.184-0.433-84.367-1.14-126.482-1.39q-176.818-0.867-353.636-1.392c-31.068-0.114-62.147 0-93.215 0z" p-id="14933" fill="#242424"></path><path d="M802.38549 50.495a187.911 187.911 0 0 0-61.953 13.077q-174.697 53.003-349.303 106.314c-107.398 32.983-214.6 66.559-321.896 99.861q-26.12 8.106-52.262 16.155C5.95849 289.322 0.31549 285.275 0.06449 273.795c-0.149-6.408 0-12.815 0.136-19.222A18.242 18.242 0 0 1 15.02249 235.19l168.734-52.24c94.332-29.311 188.584-58.908 282.984-88.004 87.788-27.066 175.735-53.79 263.978-79.385A407.596 407.596 0 0 1 786.49249 1.14a168.94 168.94 0 0 1 74.79 10.033q135.148 42.058 270.5 83.455c70.39 21.662 140.722 43.597 211.203 64.986 84.15 25.538 168.438 50.62 252.68 75.885a16.714 16.714 0 0 1 13.681 18.31c0 7.148 0 14.32-0.592 21.433-0.958 11.185-5.028 13.796-15.711 10.341-18.766-6.054-37.464-12.301-56.195-18.435q-138.02-45.216-277.044-87.366-113.554-34.294-227.324-67.904c-65.442-19.382-131.02-38.216-196.565-57.176a106.953 106.953 0 0 0-33.53-4.207zM1448.59249 884.078c-18.743 0-37.486-0.194-56.218 0.114-5.244 0.09-7.764-1.357-7.98-6.761-0.285-6.373-2.908-12.997 5.7-16.817 3.774-1.675 2.28-6.68 2.28-10.26-0.684-58.67 1.311-117.282 3.637-175.883 2.474-62.295 4.754-124.579 5.883-186.908 0.103-5.575 1.345-11.663-6.248-13.955-2.063-0.615-1.755-2.588-1.368-4.4 0.741-3.42 2.976-4.447 6.214-5.21a21.662 21.662 0 0 0 18.424-25.847 20.1 20.1 0 0 0-28.685-16.896 12.222 12.222 0 0 0-7.33 14.548 16.953 16.953 0 0 0 12.654 13.054 7.98 7.98 0 0 0 7.741-4.686 9.44 9.44 0 0 0-0.08-10.466 4.72 4.72 0 0 0-5.791-2.132c-1.858 0.764-3.808 1.835-3.876 4.047-0.103 3.306 2.508 2.828 4.731 2.976 1.653 0.114 2.862 1.14 2.2 2.975a3.74 3.74 0 0 1-5.29 2.566 10.26 10.26 0 0 1-7.285-9.292 8.186 8.186 0 0 1 6.84-8.414 17.101 17.101 0 0 1 20.306 13.784 14.525 14.525 0 0 1-11.401 18.412 24.558 24.558 0 0 1-29.94-19.381 25.812 25.812 0 0 1 24.182-32.527 809.994 809.994 0 0 1 101.994 0.501 22.916 22.916 0 0 1 25.082 22.802 26.427 26.427 0 0 1-17.774 28.32 18.492 18.492 0 0 1-21.48-7.114 19.382 19.382 0 0 1 5.005-22.186 14.753 14.753 0 0 1 17.809-1.14 8.722 8.722 0 0 1 3.01 11.184 9.999 9.999 0 0 1-10 6.316c-3.135-0.068-4.172-2.497-3.705-5.233 0.616-3.625 2.6-1.744 4.23-0.752a2.839 2.839 0 0 0 4.367-1.14c1.231-2.098 0.182-3.729-1.3-5.245a5.415 5.415 0 0 0-6.635-1.619 9.69 9.69 0 0 0-4.06 13.225 8.175 8.175 0 0 0 12.143 4.458 18.242 18.242 0 0 0 8.79-22.494 18.424 18.424 0 0 0-25.584-3.865 23.35 23.35 0 0 0-8.858 23.657 20.157 20.157 0 0 0 14.73 16.782c9.497 3.17 10.135 6.487 2.804 13.75a13.738 13.738 0 0 0-3.1 10.99c0.398 49.287 1.87 98.54 3.693 147.791 2.645 71.154 6.145 142.285 5.826 213.53a13.316 13.316 0 0 0 5.222 12.221 23.406 23.406 0 0 1 1.687 21.263c-1.915 2.28-4.56 1.38-6.92 1.38-18.789-0.023-37.532-0.023-56.275-0.023zM535.69349 884.112c-18.743 0-37.498-0.262-56.23 0.148-5.86 0.126-8.117-2.063-8.322-7.41-0.24-6.1-2.702-12.735 5.792-16.065 2.85-1.14 2.428-5.096 2.394-8.071-0.9-82.612 3.295-165.087 6.213-247.596q2.155-60.596 3.272-121.203c0.069-3.9 0-7.56-4.184-9.326-2.428-1.026-4.56-1.859-3.614-5.21a6.35 6.35 0 0 1 5.495-5.177 21.377 21.377 0 0 0 18.504-14.82 24.968 24.968 0 0 0-6.396-25.151 18.116 18.116 0 0 0-20.613-3.261 12.165 12.165 0 0 0-8.197 14.023 16.942 16.942 0 0 0 11.834 13.761 7.73 7.73 0 0 0 8.813-5.108 8.46 8.46 0 0 0-0.741-10.26 4.56 4.56 0 0 0-5.928-1.437c-1.733 1.015-3.717 2.155-3.42 4.378 0.353 2.61 2.621 2.28 4.662 2.28s2.622 1.288 2.28 2.953a3.306 3.306 0 0 1-4.366 2.873 10.158 10.158 0 0 1-7.98-8.699 7.753 7.753 0 0 1 5.335-8.699 16.315 16.315 0 0 1 20.214 9.12 14.924 14.924 0 0 1-6.579 21.287 22.449 22.449 0 0 1-24.865-3.843 26.906 26.906 0 0 1-7.582-29.106 22.677 22.677 0 0 1 20.647-17.49 370.828 370.828 0 0 1 48.033-1.504q25.15 0.41 50.29 1.288a63.994 63.994 0 0 1 13.168 1.642 23.725 23.725 0 0 1 17.454 31.49 24.136 24.136 0 0 1-26.792 19.05 14.821 14.821 0 0 1-13.054-18.686 16.497 16.497 0 0 1 19.747-14.285 9.269 9.269 0 0 1 8.265 9.018 9.828 9.828 0 0 1-7.98 10.101c-2.155 0.661-4.56 1.038-5.826-1.482a5.53 5.53 0 0 1-0.342-4.253c1.664-3.272 3.1 0 4.617 0.525a2.645 2.645 0 0 0 3.18-1.06 3.26 3.26 0 0 0 0.434-4.093c-2.143-3.147-4.708-5.028-8.653-2.634a9.326 9.326 0 0 0-2.839 13.499 8.152 8.152 0 0 0 12.541 2.918 17.41 17.41 0 0 0 7.354-22.802 18.527 18.527 0 0 0-25.87-2.28 23.862 23.862 0 0 0-7.718 24.113 19.952 19.952 0 0 0 14.822 15.848c9.12 2.998 9.804 6.76 2.667 13.362a11.572 11.572 0 0 0-3.226 9.405c-0.137 49.31 1.756 98.573 3.534 147.837 2.588 71.678 6.043 143.333 6.111 215.08a13.111 13.111 0 0 0 5.381 12.803 25.869 25.869 0 0 1 1.004 21.456c-1.847 1.46-4.276 0.856-6.465 0.856q-28.149-0.08-56.275-0.103zM1317.44749 667.539c2.143 61.086 5.256 122.127 5.017 183.27a11.401 11.401 0 0 0 2.759 8.87 23.748 23.748 0 0 1 4.56 22.016c-1.699 3.82-5.108 2.28-7.764 2.28-34.773 0.114-69.546 0.08-104.32 0.08a85.097 85.097 0 0 0-8.87 0c-5.255 0.559-7.25-2.007-7.125-6.84 0.149-6.18-2.782-13.146 5.917-16.806 2.987-1.254 1.733-5.883 1.71-8.972-0.284-47.816 1.312-95.598 2.92-143.38 2.393-71.415 5.802-142.796 6.84-214.258 0.057-4.184 0-8.38 0-12.54a6.453 6.453 0 0 0-3.728-6.636c-2.28-0.97-4.926-1.573-4.093-5.017a6.613 6.613 0 0 1 5.997-5.518 20.681 20.681 0 0 0 18.788-18.047 23.155 23.155 0 0 0-7.98-22.609 17.637 17.637 0 0 0-20.066-2.405 12.04 12.04 0 0 0-7.98 13.476 17.364 17.364 0 0 0 12.347 14.217 7.775 7.775 0 0 0 8.55-5.541 8.425 8.425 0 0 0-1.744-10.728 4.56 4.56 0 0 0-6.065 0c-1.505 1.049-2.794 2.28-2.372 4.207 0.502 2.28 2.44 2.052 4.207 1.778 2.429-0.365 3.26 0.98 2.793 3.01a3.557 3.557 0 0 1-5.13 2.702 10.26 10.26 0 0 1-7.547-9.896c0-4.56 3.42-6.92 7.501-7.98a16.942 16.942 0 0 1 19.599 13.68 14.696 14.696 0 0 1-13.271 18.995 24.683 24.683 0 0 1-28.354-23.44 25.276 25.276 0 0 1 21.662-28.617 358.082 358.082 0 0 1 48.762-1.55c16.03 0.261 32.036 0.786 48.066 1.14a59.502 59.502 0 0 1 17.5 2.462 24.181 24.181 0 0 1 15.027 30.554 24.307 24.307 0 0 1-26.69 19.382 14.992 14.992 0 0 1-12.871-19.997 16.041 16.041 0 0 1 19.872-12.883c4.56 1.402 8.129 4.013 7.98 9.348a10.09 10.09 0 0 1-8.596 9.691 4.367 4.367 0 0 1-5.324-1.288 4.241 4.241 0 0 1-0.662-4.207c1.54-3.272 3.17-0.399 4.732 0.08a2.805 2.805 0 0 0 3.625-1.585 3.785 3.785 0 0 0-0.866-4.72 5.7 5.7 0 0 0-6.556-2.143 9.942 9.942 0 0 0-5.039 12.45 8.927 8.927 0 0 0 11.823 5.803 19.04 19.04 0 0 0 10.26-21.525 17.261 17.261 0 0 0-20.19-8.186 21.331 21.331 0 0 0-14.924 19.951 20.716 20.716 0 0 0 11.4 22.05c2.213 1.037 4.687 1.516 6.967 2.428a5.997 5.997 0 0 1 2.177 10.432 13.34 13.34 0 0 0-5.7 13.317c-0.103 56.697 1.801 113.337 4.39 169.954 0.204 3.284 0.08 6.487 0.08 9.69zM665.68749 673.33c2.28-65.897 5.096-126.448 5.7-187.078 0-5.165 0.708-10.261-6.02-12.678-3.248-1.14-2.051-7.069 1.654-8.767a31.227 31.227 0 0 1 5.005-1.14 19.45 19.45 0 0 0 15.63-15.004 24.09 24.09 0 0 0-7.125-24.968 18.709 18.709 0 0 0-23.862-0.377 11.401 11.401 0 0 0-3.854 13.864 15.323 15.323 0 0 0 12.94 11.652 7.171 7.171 0 0 0 7.331-5.199 9.828 9.828 0 0 0-0.376-9.896 4.731 4.731 0 0 0-5.826-2.007c-1.87 0.787-3.67 1.893-3.74 4.15-0.113 3.649 2.498 2.611 4.664 2.611a2.166 2.166 0 0 1 2.28 2.953 3.842 3.842 0 0 1-5.176 2.862 10.569 10.569 0 0 1-7.65-9.121c-0.41-5.05 3.078-7.605 7.388-8.79a17.364 17.364 0 0 1 20.088 14.217 14.821 14.821 0 0 1-13.316 18.435 24.717 24.717 0 0 1-28.503-22.357 25.401 25.401 0 0 1 22.039-29.723 542.596 542.596 0 0 1 73.16-0.866 244.973 244.973 0 0 1 34.693 1.528 25.652 25.652 0 0 1 17.033 41.123 22.585 22.585 0 0 1-23.019 10.193 14.582 14.582 0 0 1-12.54-18.824 15.961 15.961 0 0 1 19.575-14.137 9.417 9.417 0 0 1 8.265 9.121 10.044 10.044 0 0 1-8.243 10.033 4.914 4.914 0 0 1-5.974-1.494 3.945 3.945 0 0 1-0.456-4.218c1.733-2.862 3.204-0.262 4.823 0.388a2.93 2.93 0 0 0 3.694-1.596 3.603 3.603 0 0 0-0.73-4.71 5.94 5.94 0 0 0-6.533-2.28 9.725 9.725 0 0 0-5.221 12.325 8.688 8.688 0 0 0 11.572 6.134 19.621 19.621 0 0 0 10.683-21.4 17.626 17.626 0 0 0-20.807-8.243 22.859 22.859 0 0 0-14.993 20.898 21.662 21.662 0 0 0 13.556 21.662c1.824 0.73 3.83 1.004 5.632 1.779a5.986 5.986 0 0 1 1.745 10.511 13.282 13.282 0 0 0-5.587 13.42c0 57.426 1.904 114.807 4.23 172.154 2.497 61.794 4.88 123.598 5.062 185.449a19.382 19.382 0 0 0 6.316 17.01c5.017 4.32 2.28 12.153 1.14 18.241-0.957 5.256-6.134 2.896-9.383 2.908-36.745 0.17-73.48 0-110.225 0.25-6.03 0-8.664-1.755-8.356-7.786 0.296-5.7-2.634-12.382 5.529-15.608 2.93-1.14 2.11-4.72 2.086-7.365-0.49-50.769 1.517-101.47 2.885-152.238 0.205-11.173 0.878-22.243 1.117-28zM901.26649 884.09c-18.744 0-37.498-0.297-56.23 0.159-6.681 0.16-8.916-2.52-8.779-8.483 0.126-5.53-2.348-11.629 5.61-14.82 3.728-1.483 2.405-6.58 2.394-10.193-0.24-63.846 1.927-127.691 4.458-191.411 2.28-57.13 4.24-114.261 5.301-171.426 0.103-5.78 1.46-12.187-6.59-14.479-2.063-0.593-1.528-2.793-1.037-4.503a6.35 6.35 0 0 1 5.769-4.823 20.887 20.887 0 0 0 18.663-17.375 23.121 23.121 0 0 0-7.98-23.292 17.398 17.398 0 0 0-19.382-2.668 11.971 11.971 0 0 0-8.414 13.852 15.62 15.62 0 0 0 11.56 13.875c4.56 1.254 7.377-1.414 9.121-5.495a7.98 7.98 0 0 0-1.904-10.603 4.674 4.674 0 0 0-6.1 0.16c-1.31 0.866-2.485 1.938-2.28 3.511 0.297 2.68 2.212 2.77 4.401 2.28 2.543-0.501 3.056 1.14 2.611 3.067a3.352 3.352 0 0 1-4.412 2.839 10.26 10.26 0 0 1-7.98-8.733 7.764 7.764 0 0 1 5.392-8.665 16.258 16.258 0 0 1 20.214 9.12 15.106 15.106 0 0 1-5.974 20.99 22.574 22.574 0 0 1-23.806-2.166 27.921 27.921 0 0 1-9.542-29.86 23.942 23.942 0 0 1 22.46-18.24 811.887 811.887 0 0 1 103.475 0.421 22.506 22.506 0 0 1 24.353 20.146 26.792 26.792 0 0 1-16.27 30.645 18.709 18.709 0 0 1-22.311-6.407 18.914 18.914 0 0 1 5.597-23.155 14.49 14.49 0 0 1 17.797 0.136 8.243 8.243 0 0 1 2.167 10.672 10.26 10.26 0 0 1-10.17 6.11c-2.964-0.182-3.569-2.28-3.42-4.708 0.136-2.12 1.003-3.42 3.283-1.756 1.813 1.289 3.534 1.745 5.04-0.478s0.376-3.774-1.06-5.222a5.552 5.552 0 0 0-6.613-1.801A9.999 9.999 0 0 0 946.00249 443.909a8.79 8.79 0 0 0 12.644 5.119 18.413 18.413 0 0 0 8.767-22.506 18.401 18.401 0 0 0-24.957-4.31 22.984 22.984 0 0 0-9.337 23.395 19.382 19.382 0 0 0 14.023 17.239c10.386 3.705 11.06 6.487 3.215 14.114a11.789 11.789 0 0 0-2.713 9.565c-0.194 51.305 1.767 102.495 3.625 153.72 2.52 69.204 5.952 138.374 5.85 207.646a14.046 14.046 0 0 0 5.848 14.08 27.693 27.693 0 0 1 0.843 21c-1.8 1.7-4.218 1.004-6.384 1.015-18.675 0.126-37.418 0.103-56.161 0.103zM1083.56749 884.09c-18.994 0-37.988-0.172-57.005 0.113-5.039 0.069-7.125-1.573-7.33-6.544-0.251-6.362-3.261-13.316 5.552-16.85 2.53-1.015 2.28-4.15 2.28-6.625-1.003-106.519 6.02-212.822 8.665-319.227 0.433-17.25 0.479-34.5 0.843-51.75 0.08-4.047-0.558-7.433-4.822-8.915-2.144-0.752-3.42-1.813-2.907-4.298s1.334-4.743 4.207-5.495a58.977 58.977 0 0 0 8.493-2.44 21.08 21.08 0 0 0 12.04-23.155 21.662 21.662 0 0 0-15.768-19.314 17.786 17.786 0 0 0-19.62 8.334 17.101 17.101 0 0 0 6.691 18.835 8.323 8.323 0 0 0 10.888 0.32 10.26 10.26 0 0 0 2.816-12.154 4.96 4.96 0 0 0-7.866-2.543 4.15 4.15 0 0 0-2.406 4.23c0.274 1.54 1.585 2.28 3.42 2.018 2.28-0.296 4.321 0.365 3.42 3.135a3.694 3.694 0 0 1-5.392 2.28 10.34 10.34 0 0 1-7.126-10.192c0.343-4.731 3.774-6.738 7.822-7.627a17.637 17.637 0 0 1 19.7 14.821 14.684 14.684 0 0 1-13.27 17.831 24.615 24.615 0 0 1-28.617-21.365 25.538 25.538 0 0 1 21-30.51 342.999 342.999 0 0 1 49.504-1.641c16.27 0.228 32.538 0.775 48.808 1.14a56.344 56.344 0 0 1 16.748 2.508 23.794 23.794 0 0 1 14.82 29.916 24.09 24.09 0 0 1-26.894 19.906 14.673 14.673 0 0 1-12.963-18.652 16.132 16.132 0 0 1 20.248-14.205 9.12 9.12 0 0 1 7.627 10.26 10.26 10.26 0 0 1-9.417 9.008 4.241 4.241 0 0 1-4.982-2.28 3.876 3.876 0 0 1 0.103-4.219c1.71-2.052 3.01-0.068 4.4 0.695a2.69 2.69 0 0 0 3.797-1.14c1.39-2.006 0.456-3.75-1.026-5.256a5.495 5.495 0 0 0-6.601-1.79 9.77 9.77 0 0 0-4.287 13.191 8.243 8.243 0 0 0 12.153 4.56 18.31 18.31 0 0 0 8.859-22.55 18.401 18.401 0 0 0-24.98-4.253 22.984 22.984 0 0 0-9.668 23.304 20.374 20.374 0 0 0 14.822 17.557c9.782 3.227 10.557 6.738 3.09 13.579a12.929 12.929 0 0 0-3.284 10.888q0.843 74.676 3.75 149.296c2.783 70.914 5.77 141.84 5.94 212.833a12.541 12.541 0 0 0 4.869 11.63 24.683 24.683 0 0 1 2.006 21.262c-1.892 2.28-4.56 1.414-6.84 1.425-18.823 0.148-37.566 0.114-56.31 0.114zM300.78749 668.497c1.984-58.875 4.732-117.727 5.13-176.647 0-6.772 3.341-14.913-6.623-18.949-3.26-1.322-0.08-7.353 4.936-8.642a21.958 21.958 0 0 0 18.379-28.422 19.61 19.61 0 0 0-26.952-15.004 12.404 12.404 0 0 0-8.824 13.054 17.546 17.546 0 0 0 12.54 14.935 7.57 7.57 0 0 0 8.278-4.89 8.87 8.87 0 0 0-0.9-10.98 4.56 4.56 0 0 0-6.066-0.843c-1.528 0.991-2.896 2.075-2.805 4.013 0.137 2.941 2.28 2.52 4.321 2.44s3.42 1.14 2.565 3.237a3.888 3.888 0 0 1-5.472 2.28 10.569 10.569 0 0 1-7.285-9.417 8.505 8.505 0 0 1 7.216-8.254 17.238 17.238 0 0 1 20.01 13.294 14.821 14.821 0 0 1-12.12 19.245 24.706 24.706 0 0 1-29.358-22.153 25.344 25.344 0 0 1 21.822-29.87 573.47 573.47 0 0 1 74.665-0.867c10.603 0.24 21.24 0.274 31.763 1.3a22.369 22.369 0 0 1 21.958 15.733 28.309 28.309 0 0 1-6.692 29.46 21.901 21.901 0 0 1-19.633 6.362 15.05 15.05 0 0 1-12.404-20.34 15.961 15.961 0 0 1 20.112-12.392 9.19 9.19 0 0 1 7.456 9.725 10.158 10.158 0 0 1-9.053 9.349 4.218 4.218 0 0 1-5.119-1.858 4.002 4.002 0 0 1-0.125-4.23c1.573-2.212 2.941-0.16 4.39 0.444a2.725 2.725 0 0 0 3.75-1.322 4.161 4.161 0 0 0-1.14-5.302 5.438 5.438 0 0 0-6.658-1.516 9.953 9.953 0 0 0-4.002 13.385 8.425 8.425 0 0 0 12.37 4.047 18.242 18.242 0 0 0 8.312-22.733 18.652 18.652 0 0 0-25.721-3.193 22.585 22.585 0 0 0-8.779 21.594 20.26 20.26 0 0 0 14.696 18.447c9.93 3.124 10.785 6.84 3.42 13.59-3.876 3.545-3.215 7.98-3.17 12.381 0.457 45.843 1.392 91.675 3.136 137.496 2.85 74.62 6.294 149.227 6.362 223.938 0 3.534-0.057 7.274 3.18 9.383 8.905 5.803 4.31 14.069 4.162 21.457-0.068 3.09-2.953 2.781-5.13 2.781H294.76849c-3.694 0-5.792-1.356-5.7-5.005 0.227-6.51-4.185-14.228 5.415-18.4 3.215-1.403 1.892-5.815 1.87-8.916-0.32-50.54 1.687-101.036 2.964-151.554 0.216-10.5 0.946-21.08 1.47-31.671zM118.09849 668.462c2.11-60.596 4.777-121.17 5.518-181.8 0.069-5.472 0.73-11.081-6.384-13.18-2.041-0.603-1.916-2.553-1.3-4.377a7.103 7.103 0 0 1 5.7-4.982 21.662 21.662 0 0 0 19.029-25.368 20.146 20.146 0 0 0-28.218-17.66 12.165 12.165 0 0 0-7.832 14.263 17.272 17.272 0 0 0 12.267 13.419 8.072 8.072 0 0 0 8.847-6.26 7.9 7.9 0 0 0-2.075-10.032 4.663 4.663 0 0 0-6.1 0c-1.436 1.037-2.86 2.28-2.336 4.207 0.57 2.109 2.382 2.006 4.23 1.778 2.28-0.285 3.306 1.05 2.69 3.124a3.591 3.591 0 0 1-5.233 2.543 10.26 10.26 0 0 1-7.228-9.372c-0.114-5.142 3.306-7.502 7.695-8.517a17.546 17.546 0 0 1 19.86 16.315 14.673 14.673 0 0 1-14.136 16.463 24.227 24.227 0 0 1-27.693-21.48 25.253 25.253 0 0 1 21.662-30.61 357.603 357.603 0 0 1 47.29-1.529c16.772 0.251 33.531 0.719 50.29 1.266a68.531 68.531 0 0 1 13.191 1.516 22.015 22.015 0 0 1 18.972 23.646 26.028 26.028 0 0 1-18.162 26.633 19.302 19.302 0 0 1-20.191-5.7 17.375 17.375 0 0 1 0.832-20.1 14.502 14.502 0 0 1 16.577-6.762 9.12 9.12 0 0 1 8.266 9.714 9.896 9.896 0 0 1-8.733 9.543c-1.961 0.456-4.173 0.456-5.188-1.62a5.586 5.586 0 0 1-0.319-4.24c1.608-3.42 3.078 0 4.56 0.433a2.976 2.976 0 0 0 3.683-1.608c1.368-2.143 0.068-3.773-1.345-5.187a5.484 5.484 0 0 0-6.693-1.494 9.736 9.736 0 0 0-3.842 13.34 8.197 8.197 0 0 0 12.279 4.115 17.9 17.9 0 0 0 8.357-22.608 18.242 18.242 0 0 0-25.607-3.477 23.247 23.247 0 0 0-8.596 23.053 20.146 20.146 0 0 0 14.342 17.101c10.261 3.671 10.865 6.293 2.999 14.114a12.803 12.803 0 0 0-2.839 10.261c0.148 51.521 2.075 102.985 3.956 154.472 2.543 69.455 5.7 138.887 5.769 208.41a12.2 12.2 0 0 0 3.489 10.044 23.452 23.452 0 0 1 3.591 21.662c-1.14 2.452-3.135 2.041-4.994 2.041-38.968 0-77.937 0-116.905 0.103-3.877 0-5.37-1.608-5.598-5.074-0.433-6.738-3.808-14.046 5.301-18.447 3.42-1.641 2.155-6.236 2.155-9.61 0-41.66 0.753-83.296 1.938-124.944 0.547-19.188 0.091-38.421 0.091-57.62zM811.41549 978.74q-375.093 0-750.185 0.148c-19.097 0-19.735-8.46-18.116-22.961a10.26 10.26 0 0 1 10.785-9.27c4.675-0.25 9.372-0.148 14.058-0.148h1493.083a18.356 18.356 0 0 1 14.035 3.079 26.427 26.427 0 0 1 2.873 21.776 12.541 12.541 0 0 1-13.26 7.365c-5.175-0.114-10.363 0-15.539 0zM805.22449 991.885h774.674a16.52 16.52 0 0 1 15.026 25.903 11.082 11.082 0 0 1-10.26 6.032c-4.926 0.114-9.863 0-14.822 0H30.71049a16.474 16.474 0 0 1-16.11-25.356 10.363 10.363 0 0 1 9.885-6.544h16.28zM809.34049 933.889H83.40549c-15.893-0.069-21.286-6.488-18.344-22.29a10.99 10.99 0 0 1 11.138-9.895c4.185-0.16 8.38-0.069 12.542-0.069h1448.186c14.958 0 21.286 8.54 17.033 23.076a11.982 11.982 0 0 1-11.31 9.12c-2.94 0.251-5.916 0.08-8.88 0.08zM1222.77349 353.34c15.22 0.204 15.369 0.193 16.178 15.505 0.217 4.172 1.688 5.7 5.77 5.45s7.889-0.07 11.833-0.16c1.517 0 3.216-0.422 3.238-2.28s-1.459-2.395-3.044-2.566a19.553 19.553 0 0 1-2.212-0.114c-2.667-0.604-6.772 1.699-7.718-2.143a35.195 35.195 0 0 1 0-11.698c0.217-2.109 2.485-2.006 4.218-2.006h22.94c2.998 0 4.685 1.14 4.64 4.298v2.953c0.296 13.84 3.807 16.543 17.682 13.613 1.505-0.32 3.113-0.536 2.976-2.486s-1.608-2.28-3.181-2.405c-0.741-0.057-1.482-0.069-2.223-0.126a9.212 9.212 0 0 1-7.73-13.51c1.026-2.371 2.998-2.28 4.937-2.28 7.399 0 14.82 0.08 22.197-0.103 3.945-0.091 5.359 1.642 4.971 5.347a9.12 9.12 0 0 0 0 2.212c0.593 4.241-2.348 10.113 1.779 12.416 4.81 2.69 11.093 0.81 16.736 0.786 1.323 0 2.474-0.627 2.531-2.109a2.451 2.451 0 0 0-2.28-2.474 22.551 22.551 0 0 0-2.941-0.273 9.223 9.223 0 0 1-8.483-13.488c1.14-2.816 3.5-2.28 5.61-2.337 6.909-0.08 13.818 0.16 20.715-0.091 4.56-0.171 6.43 1.607 5.872 6.065a4.857 4.857 0 0 0 0 0.741c0.24 16.201-2.793 13.966 15.653 14.092 1.995 0 5.108 0.752 4.846-2.714-0.194-2.622-2.873-2.28-4.766-2.211-4.994 0.182-8.87 0.421-8.858-7.023 0-7.263 2.097-9.646 9.223-8.973a141.475 141.475 0 0 0 18.48 0c3.946-0.148 5.44 1.437 4.972 5.21a10.056 10.056 0 0 0 0 1.482c0.387 15.369-3.181 14.366 14.821 14.149 2.212 0 6.043 1.14 6.02-2.28 0-3.808-4.105-2.85-6.499-2.634-5.552 0.502-6.977-1.642-7.24-7.114-0.341-7.274 2.19-9.907 9.201-8.904 1.938 0.273 3.945 0 5.917 0.102 5.359 0.342 11.732-2.075 15.836 1.14s1.323 9.737 1.813 14.822c0.262 2.656 0.456 4.982 3.956 4.936 4.435-0.057 8.881 0 13.316-0.068 1.54 0 3.181-0.467 3.17-2.28s-1.482-2.383-3.078-2.531c-0.73-0.069-1.494 0-2.212-0.091-2.565-0.365-6.293 1.345-7.4-1.642a20.727 20.727 0 0 1-0.125-12.37c0.639-2.406 3.204-1.79 5.096-1.813 6.91-0.057 13.818 0.16 20.716-0.137 4.674-0.194 6.27 1.824 5.792 6.145a5.7 5.7 0 0 0 0 0.741c0.296 14.354 3.716 17.01 18.002 14.046 1.493-0.307 3.09-0.49 2.941-2.485a2.588 2.588 0 0 0-2.52-2.28c-1.208-0.171-2.45-0.148-3.682-0.217a9.531 9.531 0 0 1-6.84-14.137c1.14-1.801 2.861-1.665 4.56-1.676 7.4 0 14.821 0.091 22.198 0 3.705-0.068 5.415 1.14 5.244 5.12-0.25 5.7 0 11.332-0.091 17.01 0 1.983 0 4.32-2.827 4.206-2.383-0.09-2.178-2.28-2.28-3.91-0.08-0.98 0-1.973-0.058-2.953-0.16-15.961 2.167-13.852-15.106-14.012-2.28 0-5.803-0.958-5.917 2.554-0.125 3.785 3.614 2.827 5.7 2.542 6.089-0.82 7.445 2.053 7.799 7.49 0.433 6.693-1.46 9.486-8.585 8.757a144.12 144.12 0 0 0-18.481-0.08c-3.82 0.103-5.484-1.482-5.153-5.256a13.795 13.795 0 0 0 0-1.482c-0.331-15.483-1.836-16.737-17.41-14.56-1.744 0.24-3.75 0.24-3.899 2.475-0.182 3.01 2.349 2.474 4.207 2.748 4.047 0.581 9.816-2.372 9.645 5.974-0.216 10.044 0.217 10.044-10.01 10.033-1.482 0-2.964 0.08-4.435 0-5.358-0.388-11.731 2.131-15.847-1.14s-1.3-9.737-1.733-14.822c-0.308-3.557-1.414-5.507-5.313-5.336-4.184 0.183-8.391 0-12.541 0.08-1.87 0-3.637 0.57-3.58 2.782 0.057 2.406 2.178 2.212 3.842 2.372h1.482a9.622 9.622 0 0 1 8.22 13.92c-1.14 2.372-3.135 2.04-5.039 2.052-7.148 0.069-14.308-0.08-21.456 0.114-3.922 0.103-5.393-1.619-5.085-5.313a14.548 14.548 0 0 0 0-1.482c-0.285-15.653-1.414-16.565-17.512-14.547-1.767 0.216-3.717 0.16-3.854 2.45-0.182 2.977 2.28 2.578 4.139 2.828 4.024 0.548 9.85-2.576 9.713 5.838-0.17 10.158 0.228 10.158-9.941 10.135-5.7 0-11.401-0.114-17.022 0.057-4.138 0.126-5.997-1.505-5.301-5.7a4.674 4.674 0 0 0 0-0.741c0-16.384-0.126-16.52-17.102-14.822-1.984 0.194-4.366 0-4.355 2.737s2.622 2.28 4.47 2.53c3.796 0.582 9.245-2.382 9.211 5.564 0 10.432 0.365 10.432-10.386 10.41-4.937 0-9.896-0.343-14.821 0.08-5.393 0.455-6.613-1.87-6.659-6.841-0.136-15.449-0.307-15.46-15.96-14.503-2.11 0.126-5.109-0.49-5.166 2.646-0.057 3.329 3.079 2.599 5.074 2.53 4.823-0.182 8.573-0.136 8.608 6.636 0 9.052 0.136 9.451-9.212 9.463-5.7 0-11.401-0.228-17.022 0-4.412 0.182-6.533-1.414-6.043-5.952a12.473 12.473 0 0 0 0-1.482c-0.216-14.137-3.625-16.725-18.024-13.806-1.813 0.365-3.523 0.73-3.352 3.01 0.148 1.995 1.915 1.915 3.329 2.097a10.26 10.26 0 0 0 2.953 0.069c8.505-1.414 7.08 4.64 7.615 9.668 0.684 6.441-3.135 6.544-7.73 6.407a238.144 238.144 0 0 0-18.492 0c-4.663 0.24-6.293-1.813-6.02-6.088a7.262 7.262 0 0 0 0-0.741c-0.615-15.825-1.003-16.132-16.816-14.48-1.995 0.206-4.355 0.092-4.275 2.828 0.08 2.907 2.713 2.451 4.56 2.372 5.256-0.24 9.406-0.525 9.315 7.285-0.08 7.205-2.28 9.6-9.292 8.893a113.702 113.702 0 0 0-16.999-0.08c-4.663 0.24-5.758-1.756-5.837-6.1-0.285-16.246-0.434-16.246-16.703-15.186-2.109 0.137-4.97-0.49-4.72 2.976 0.205 2.896 2.828 2.12 4.64 2.28 8.494 0.627 11.14 4.56 9.121 13.077-0.615 2.68-2.28 2.896-4.332 2.907h-22.939c-3.283 0-5.233-1.14-4.914-4.766a12.792 12.792 0 0 0 0-1.482c-0.444-16.52-0.433-16.497-17.021-15.038-1.996 0.183-4.378 0-4.447 2.668-0.08 2.873 2.52 2.28 4.378 2.645 3.728 0.639 9.292-2.6 9.27 5.439 0 10.523 0.375 10.534-10.262 10.523-5.427 0-10.865-0.228-16.28 0-3.968 0.17-5.359-1.562-5.108-5.222v-1.482c-0.467-15.05-0.467-15.072-15.3-14.536-2.28 0.08-5.803-0.947-5.917 2.565-0.114 3.75 3.546 2.577 5.7 2.588 4.184 0 7.57-0.24 7.799 5.849 0.376 10.158 0.684 10.26-9.657 10.26-5.7 0-11.401-0.17-17.022 0-4.218 0.149-5.894-1.653-5.484-5.7a5.461 5.461 0 0 0 0-0.741c-0.524-16.28-0.877-16.577-17.101-14.821-1.95 0.205-4.412 0-4.253 2.816s2.714 2.177 4.56 2.45c3.809 0.571 9.27-2.393 9.315 5.508 0.057 10.489 0.434 10.477-10.329 10.466-5.176 0-10.375-0.228-15.54 0.068-4.56 0.262-6.441-1.516-5.974-5.963a5.7 5.7 0 0 0 0-0.74c-0.467-15.631-1.664-16.612-17.534-14.617-1.767 0.217-3.706 0.205-3.922 2.44-0.285 3.078 2.28 2.497 4.081 2.839 3.751 0.695 9.326-2.497 9.486 5.404 0.205 10.42 0.433 10.557-10.26 10.569-5.428 0-10.855-0.092-16.282 0-3.636 0.09-5.7-1.14-5.312-5.085a11.914 11.914 0 0 0 0-1.482c-0.41-15.688-1.722-16.794-17.261-14.673-1.984 0.273-4.264 0.24-3.934 3.1 0.274 2.43 2.486 1.79 4.082 2.11 3.716 0.73 9.28-2.554 9.52 5.324 0.33 10.637 0.684 10.637-10.033 10.671-5.427 0-10.865-0.228-16.27 0-4.492 0.229-6.487-1.436-5.974-5.94a11.401 11.401 0 0 0 0-1.482c-0.182-14.274-0.182-14.296-14.98-13.829-2.28 0.068-5.815-0.9-5.94 2.554-0.137 3.717 3.545 2.782 5.7 2.577 5.507-0.514 7.787 0.969 7.878 7.182 0.103 7.057-1.96 10.056-9.12 8.95-1.688-0.262-3.42 0-5.177-0.08-5.381-0.296-11.88 2.098-15.87-0.992s-1.254-9.713-1.573-14.753c-0.228-3.534-1.254-5.598-5.188-5.472-4.195 0.137-8.39 0-12.54 0-1.802 0-3.752 0.262-3.9 2.451-0.194 2.964 2.28 2.577 4.184 2.76a8.688 8.688 0 0 0 2.212 0c7.593-1.266 7.33 3.522 7.593 8.915 0.32 6.316-2.565 7.718-7.98 7.16-2.44-0.251-4.937 0-7.4-0.103-5.142-0.262-11.4 2.04-15.152-0.958-4.036-3.238-1.345-9.713-1.641-14.764-0.206-3.5-1.14-5.7-5.13-5.495-4.436 0.17-8.882 0-13.317 0.125-1.608 0-2.942 0.798-2.976 2.6s1.54 2.28 3.044 2.44c0.73 0.09 1.482 0 2.212 0.08a9.554 9.554 0 0 1 8.117 13.931c-0.912 2.018-2.53 2.052-4.275 2.052-7.4 0-14.821-0.09-22.198 0.08-3.91 0.091-5.404-1.619-5.096-5.324a13.419 13.419 0 0 0 0-1.482c-0.433-15.87-0.775-16.155-16.942-14.48-1.972 0.206-4.332 0-4.218 2.805s2.668 2.28 4.56 2.406c4.093 0.308 9.121-1.733 9.019 5.905-0.137 10.147 0.285 10.147-10.022 10.113-5.7 0-11.4-0.114-17.022 0-3.773 0.103-5.54-1.402-5.13-5.233a11.903 11.903 0 0 0 0-1.482c-0.33-15.483-1.858-16.748-17.432-14.57-1.733 0.239-3.74 0.193-3.865 2.485-0.171 3.01 2.28 2.508 4.195 2.77 4.025 0.582 9.817-2.45 9.6 5.952-0.25 10.078 0.183 10.09-9.999 10.055-4.925 0-9.884-0.262-14.82 0.08-5.257 0.365-7.468-1.14-7.48-6.932 0-15.323-0.262-15.323-15.961-14.388-2.144 0.126-5.13-0.399-5.176 2.657 0 3.283 3.146 2.782 5.085 2.474 7.308-1.14 8.71 2.45 8.493 8.858-0.17 5.154-1.22 7.787-7.057 7.354a144.211 144.211 0 0 0-18.492 0c-4.983 0.274-6.225-1.767-6.282-6.476-0.205-15.961-0.365-15.961-16.372-14.821-2.098 0.137-5.108-0.479-4.891 2.839s3.295 2.28 5.301 2.337c4.378 0.148 8.916-1.038 8.585 6.362-0.433 9.702 0.069 9.725-9.702 9.725-1.721 0-3.42 0-5.176-0.057-5.393-0.308-11.868 2.12-15.882-1.026s-1.22-9.714-1.573-14.822c-0.25-3.42-1.14-5.632-5.187-5.438-4.435 0.205-8.882 0-13.317 0.137-1.607 0-2.953 0.775-2.975 2.588s1.562 2.28 3.055 2.428c0.73 0.092 1.482 0.057 2.212 0.092a9.12 9.12 0 0 1 8.209 13.68c-1.004 2.452-2.919 2.28-4.869 2.28-7.148 0-14.308-0.136-21.456 0.092-4.002 0.137-5.325-1.664-5.085-5.29v-1.482c-0.388-15.437-1.915-16.68-17.615-14.502-1.767 0.24-3.74 0.25-3.808 2.53-0.08 2.977 2.372 2.555 4.276 2.635 4.446 0.193 9.554-1.505 9.314 6.441-0.285 9.634 0.217 9.645-9.61 9.634-5.177 0-10.387-0.297-15.529 0.091-5.7 0.433-7.011-1.984-7.011-7.342 0-15.813 3.352-13.944-15.585-13.955-2.212 0-5.701-0.89-5.507 2.919 0.17 3.18 3.34 2.2 5.347 2.2 4.56 0 8.779-0.707 8.46 6.51-0.411 9.543 0.09 9.577-9.817 9.6-5.7 0-11.4-0.183-17.021 0-4.219 0.148-5.883-1.7-5.598-5.7V371.9c-0.183-14.947 2.12-13.305-14.206-13.305-2.44 0-6.533-1.334-6.658 2.463-0.137 4.047 4.07 2.804 6.384 2.588 5.541-0.513 7.046 1.562 7.274 7.068 0.285 6.944-1.46 10.261-8.881 9.121a39.596 39.596 0 0 0-5.176 0c-5.404-0.148-11.914 1.47-15.962-0.98-4.765-2.896-1.242-9.965-1.904-15.175-0.353-2.714-0.672-4.982-3.978-5.017-4.926-0.068-9.862 0-14.822 0a2.61 2.61 0 0 0-2.941 2.611c0 1.95 1.46 2.28 2.998 2.452 0.73 0.068 1.482 0 2.212 0.08a9.12 9.12 0 0 1 8.448 13.578c-0.957 2.44-2.896 2.371-4.834 2.383-7.4 0-14.821 0-22.198 0.068-3.42 0-5.039-1.46-4.8-4.902v-1.482c-0.444-16.019-0.444-15.962-16.405-14.913-2.178 0.148-4.983-0.274-4.789 3.01 0.171 2.816 2.862 2.086 4.686 2.212 4.139 0.285 9.12-1.585 8.938 5.997-0.182 10.044 0.251 10.055-10.09 10.055-1.482 0-2.964 0.08-4.434 0-5.382-0.387-11.903 2.11-15.87-1.003s-1.06-9.725-1.597-14.821c-0.273-2.565-0.433-5.222-3.74-5.347-4.924-0.194-9.861-0.092-14.82 0-1.608 0-2.93 0.73-2.965 2.576s1.425 2.28 2.964 2.497c0.73 0.08 1.483 0 2.212 0.091a9.383 9.383 0 0 1 8.05 13.875c-0.901 2.018-2.497 2.132-4.23 2.132-7.4 0-14.822-0.102-22.198 0-3.797 0.08-5.518-1.459-5.222-5.233a13.795 13.795 0 0 0 0-1.482c-0.399-15.482-1.915-16.748-17.34-14.57-1.734 0.24-3.774 0.24-3.945 2.45-0.228 3.045 2.382 2.463 4.207 2.737 4.047 0.616 9.782-2.337 9.679 5.974-0.125 9.976 0.32 9.976-9.999 10.022-5.427 0-10.853-0.114-16.28 0.08-4.447 0.16-5.974-1.654-6.02-6.123-0.148-16.565-0.285-16.543-16.531-15.197-2.007 0.17-4.492 0-4.56 2.542-0.138 3.42 2.906 2.565 4.936 2.714a9.12 9.12 0 0 1 8.448 13.521 3.648 3.648 0 0 1-3.99 2.474c-7.65 0-15.3-0.068-22.94 0-3.59 0.057-4.867-1.63-4.56-4.96v-1.481c-0.399-16.292-0.581-16.44-17.204-14.822-1.96 0.194-4.378-0.057-4.412 2.68 0 2.918 2.531 2.382 4.39 2.553 4.206 0.4 9.725-2.132 9.53 6.1-0.239 9.93 0.229 9.941-10.02 9.919-5.701 0-11.402-0.103-17.022 0-3.808 0.09-5.473-1.562-5.13-5.325a13.795 13.795 0 0 0 0-1.482c-0.309-15.847-0.673-16.155-16.806-14.479-2.018 0.205-4.355 0.137-4.23 2.85s2.702 2.28 4.56 2.372c4.15 0.25 9.122-1.574 8.916 5.997-0.205 10.032 0.228 10.044-10.112 10.032-5.427 0-10.854-0.102-16.28 0.069-3.683 0.114-5.701-1.14-5.325-5.062a12.2 12.2 0 0 0 0-1.482c-0.502-16.144-0.98-16.543-17.25-14.822-1.95 0.217-4.366 0-4.264 2.805s2.702 2.212 4.56 2.383c4.06 0.399 9.213-1.733 9.258 5.837 0 9.85 0.091 10.181-10.124 10.17h-4.435c-16.303 0.102-16.383 0.102-17.523-15.87-0.251-3.489-1.072-5.621-5.108-5.427-4.435 0.216-8.881 0-13.316 0.148-1.859 0-3.5 0.718-3.227 3.033 0.24 1.983 1.984 1.858 3.42 2.018a10.683 10.683 0 0 0 2.953 0c7.605-1.289 7.286 3.511 7.594 8.87 0.353 6.156-2.132 7.638-7.708 7.25a142.341 142.341 0 0 0-17.75 0c-4.823 0.263-6.42-1.481-6.545-6.304-0.388-16.11-0.559-16.11-16.326-14.992-2.12 0.148-4.982-0.445-4.72 2.987 0.228 2.873 2.861 2.189 4.674 2.189 4.754 0 9.12-0.901 9.12 6.76 0 7.445-1.937 10.261-9.53 9.418a135.455 135.455 0 0 0-17.752-0.08c-3.842 0.091-5.46-1.585-5.073-5.336a13.772 13.772 0 0 0 0-1.482c-0.08-14.947-2.839-17.101-18.082-14.456-1.893 0.33-3.42 0.65-3.26 2.987 0.182 1.995 1.846 1.995 3.294 2.177 0.73 0.091 1.482 0 2.212 0a9.349 9.349 0 0 1 7.924 13.944c-0.947 2.018-2.623 1.995-4.31 2.03-3.694 0.067-7.4 0.079-11.104 0-1.904 0-4.424 0.193-4.219-2.737 0.183-2.611 2.508-2.622 4.56-2.68 2.212-0.056 4.447 0 6.647-0.148 1.517-0.114 3.044-0.65 2.794-2.622-0.183-1.448-1.505-1.778-2.737-1.96-0.73-0.103-1.47-0.08-2.211-0.138a9.36 9.36 0 0 1-8.403-13.84c0.912-2.349 2.76-2.486 4.8-2.486 7.4 0 14.821 0.148 22.198-0.057 3.956-0.114 5.392 1.585 5.062 5.29a13.1 13.1 0 0 0 0 1.482c0.307 15.825 0.82 16.27 16.713 14.502 1.654-0.182 3.945 0.183 4.173-2.04 0.32-2.93-2.28-2.554-4.173-2.816-4.184-0.593-9.793 1.835-9.656-6.282 0.17-10.056-0.24-10.067 10.147-10.079h3.694c5.7 0.126 12.37-1.585 16.69 0.89 5.177 2.952 1.357 10.34 2.212 15.71 0.365 2.28 0.274 4.56 3.42 4.56 4.687 0 9.372 0.103 14.058 0 1.46 0 3.238-0.307 3.42-2.12 0.24-2.474-1.938-2.372-3.568-2.702a12.666 12.666 0 0 0-1.47-0.08 9.326 9.326 0 0 1-8.46-13.681c0.832-2.463 2.6-2.634 4.64-2.634 7.4 0 14.821 0.148 22.198 0 3.944-0.08 5.347 1.722 5.039 5.381a12.78 12.78 0 0 0 0 1.483c0.422 15.3 1.972 16.577 17.318 14.285 1.676-0.25 3.853 0 3.728-2.44-0.125-2.28-2.212-2.28-3.933-2.28a11.253 11.253 0 0 0-2.212 0c-8.323 1.14-7.263-4.47-7.627-9.782-0.422-6.248 2.895-6.772 7.707-6.601 6.407 0.228 12.826 0.194 19.233 0 4.082-0.103 6.043 1.413 5.495 5.62a10.26 10.26 0 0 0 0 1.483c0.171 14.467 3.615 17.101 17.889 14 1.47-0.32 3.146-0.445 2.998-2.428s-1.893-2.007-3.33-2.224a10.535 10.535 0 0 0-2.952-0.114c-8.687 1.209-6.75-5.005-7.262-9.918-0.673-6.408 3.055-6.579 7.718-6.43 6.407 0.193 12.826 0.182 19.234 0 4.024-0.103 6.133 1.242 5.586 5.54a11.15 11.15 0 0 0 0 1.482c0.091 14.913 0.091 14.958 14.719 14.138 2.223-0.126 5.871 0.969 5.7-2.691-0.125-2.725-3.42-2.28-5.552-2.075-6.544 0.798-7.536-2.554-7.798-8.232-0.308-6.715 2.052-8.733 8.448-8.22a145.066 145.066 0 0 0 17.751 0c4.332-0.182 6.613 1.232 6.168 5.838a12.21 12.21 0 0 0 0 1.482c0.433 14.012 4.435 17.101 18.116 13.863 1.54-0.353 3.078-0.684 2.873-2.588-0.148-1.38-1.493-1.812-2.759-1.995-0.73-0.102-1.47-0.114-2.212-0.182-8.231-0.718-11.218-5.359-8.927-13.408 0.856-2.987 3.045-2.861 5.222-2.884 7.4-0.069 14.821 0 22.198-0.08 3.853-0.068 5.392 1.71 5.142 5.393v1.482c0.387 15.961 0.387 15.961 16.656 14.433 1.733-0.16 3.934 0 4.07-2.189 0.16-2.804-2.382-2.508-4.286-2.77-3.888-0.513-9.235 2.098-9.212-5.7 0-10.467-0.365-10.478 10.192-10.546 4.926 0 9.885 0.25 14.822-0.103 5.244-0.376 7.433 1.14 7.456 6.898 0 15.79 0.32 15.801 16.087 14.342 1.824-0.171 4.56 0.479 4.56-2.383s-2.656-2.28-4.503-2.451c-4.184-0.33-9.121 1.3-8.984-6.168 0.16-10.101-0.263-10.113 9.976-10.158 5.426 0 10.853 0.16 16.269-0.057 4.31-0.171 6.692 1.14 5.974 5.86a9.337 9.337 0 0 0 0 1.482c0.194 14.308 3.705 16.953 18.241 13.795 1.483-0.319 3.067-0.456 2.942-2.474-0.091-1.505-1.368-1.904-2.6-2.109-0.957-0.16-1.983 0-2.941-0.182-2.68-0.49-6.84 1.448-7.57-2.474a41.317 41.317 0 0 1 0.24-12.428c0.182-1.527 2.37-1.402 3.83-1.413 7.65 0 15.289 0 22.939-0.103 3.773 0 5.484 1.596 5.085 5.381a12.188 12.188 0 0 0 0 1.483c0.205 14.912 2.952 17.158 17.489 14.388 1.493-0.285 3.124-0.434 3.146-2.36s-1.505-2.28-3.055-2.417a12.872 12.872 0 0 0-2.953-0.08c-7.98 1.265-7.718-3.763-7.98-9.417-0.274-6.51 3.02-7.217 8.197-6.955 6.145 0.308 12.335 0.25 18.492 0 4.56-0.194 6.373 1.699 5.883 6.1a13.43 13.43 0 0 0 0 1.482c0.125 13.84 4.366 16.964 18.321 13.498 1.197-0.296 2.52-0.41 2.657-1.995s-0.935-2.189-2.178-2.485a17.42 17.42 0 0 0-2.93-0.251 9.28 9.28 0 0 1-8.437-13.772 3.728 3.728 0 0 1 4.025-2.497c7.89 0 15.779 0.068 23.668 0 3.478 0 4.994 1.528 4.652 4.97a18.994 18.994 0 0 0 0 2.212c0.262 14.958 2.03 16.395 17.158 13.978 1.688-0.274 3.888-0.217 3.626-2.61-0.228-2.144-2.349-2.121-4.07-2.281-4.31-0.33-9.668 1.733-9.372-6.373 0.365-9.896-0.125-9.919 10.101-9.942 5.7 0 11.401 0.126 17.022 0 3.842-0.102 5.484 1.517 5.13 5.29a12.792 12.792 0 0 0 0 1.482c0.343 14.947 3.09 17.182 17.695 14.434 1.46-0.274 3.112-0.308 3.147-2.28s-1.562-2.28-3.045-2.44a11.618 11.618 0 0 0-2.952-0.057c-8.403 1.14-7.092-4.64-7.525-9.862-0.524-6.373 2.953-6.715 7.696-6.544a270.3 270.3 0 0 0 18.492 0c4.264-0.148 6.715 1.14 6.077 5.826a9.178 9.178 0 0 0 0 1.482c0.399 15.118 1.231 15.813 16.657 13.92 1.653-0.205 3.956 0.115 4.093-2.143 0.182-2.975-2.554-2.28-4.321-2.633-3.877-0.65-9.201 1.915-9.258-5.792-0.068-10.603-0.467-10.603 10.26-10.626 5.177 0 10.376 0.228 15.54-0.057 4.914-0.273 7.023 1.14 7.035 6.59 0 16.053 0.262 16.041 16.36 14.673 1.722-0.148 3.91 0.182 4.048-2.12 0.17-2.862-2.28-2.532-4.253-2.737-4.002-0.433-9.258 1.813-9.315-5.814-0.068-10.49-0.41-10.49 10.375-10.512 5.427 0 10.865 0.194 16.28-0.068 4.618-0.228 6.306 1.79 5.861 6.133a6.236 6.236 0 0 0 0 0.741c0.25 15.551 1.049 16.235 16.805 14.388 1.665-0.193 3.933 0.114 4.093-2.154 0.205-2.942-2.485-2.474-4.287-2.702-9.907-1.209-10.534-2.178-9.565-12.074 0.319-3.284 1.767-4.253 4.663-4.241 7.65 0 15.3 0.057 22.939 0 3.351 0 5.141 1.254 4.834 4.8a21.434 21.434 0 0 0 0 2.223c0.239 15.961-2.668 13.955 14.9 14.183 2.19 0 5.827 0.991 5.701-2.702-0.114-2.896-3.42-2.224-5.45-2.121-4.8 0.24-7.98-0.467-7.786-6.658 0.239-9.714-0.137-9.725 9.645-9.748h4.446c5.416 0.091 11.8-1.55 15.962 0.764 5.141 2.85 1.47 9.884 2.086 15.05 0.456 3.773 2.12 5.198 5.7 5.118s7.4 0 11.094-0.068c1.619 0 3.899 0.365 4.161-1.973 0.308-2.804-2.075-2.759-4.036-3.01-9.816-1.265-10.113-1.8-9.543-10.682 0.251-3.774 1.722-5.256 5.439-5.199q10.728 0.171 21.456 0c3.934-0.08 6.214 1.14 5.7 5.495a11.652 11.652 0 0 0 0 1.482c0.206 14.24 3.672 16.908 17.855 13.864 1.47-0.32 3.112-0.513 3.032-2.451-0.057-1.391-1.31-2.007-2.565-2.28-0.957-0.183-1.972-0.103-2.941-0.263-2.531-0.421-6.134 1.425-7.354-1.676a20.27 20.27 0 0 1-0.125-12.335c0.627-2.463 3.215-1.79 5.096-1.802 6.909 0 13.818 0.251 20.716-0.068 5.119-0.24 6.167 2.143 6.224 6.658 0.217 15.209 0.354 15.232 15.312 14.24 1.79-0.114 4.56 0.752 4.823-2.018 0.33-3.42-2.645-2.862-4.743-2.953-4.253-0.194-9.018 1.334-8.813-6.157 0.273-9.69-0.183-9.713 9.713-9.747 5.427 0 10.877 0.285 16.27-0.08s6.703 1.824 6.612 6.84c-0.285 15.836-2.143 14.149 14.046 14.024 2.36 0 6.556 1.63 6.693-2.2s-4.06-2.851-6.476-2.623c-5.632 0.524-6.84-1.813-7.114-7.194-0.388-7.297 2.097-9.862 9.12-8.802 1.927 0.285 3.945-0.08 5.906 0 5.381 0.342 11.8-2.086 15.882 1.14s1.208 9.691 1.676 14.708c0.296 3.226 1.14 5.153 4.742 5.085 4.196-0.08 8.392 0 12.542-0.092 1.493 0 3.192-0.273 3.329-2.143s-1.323-2.451-2.885-2.69c-0.73-0.115-1.482-0.058-2.212-0.115a9.007 9.007 0 0 1-7.98-13.327 3.762 3.762 0 0 1 4.013-2.52h23.68c3.238 0 4.457 1.482 4.332 4.503v2.224c0.285 14.581 3.42 17.01 17.911 14.148 1.494-0.296 3.158-0.444 3.033-2.394-0.114-1.744-1.63-2.28-3.193-2.451-0.73-0.08-1.482-0.069-2.211-0.114-7.776-0.502-10.866-5.359-8.471-13.009 0.889-2.85 3.055-2.839 5.29-2.839 7.399 0 14.821 0.126 22.197 0 3.808-0.08 5.564 1.346 5.085 5.222a10.443 10.443 0 0 0 0 1.482c0.194 14.468 0.194 14.502 14.537 14.149 2.28 0 6.065 1.06 6.065-2.28 0-3.831-4.059-2.873-6.465-2.623-5.78 0.593-6.84-1.995-6.977-7.262-0.17-6.464 1.14-9.634 8.448-8.824a109.267 109.267 0 0 0 17.74 0.057c4.96-0.263 6.84 1.8 6.27 6.51a11.914 11.914 0 0 0 0 1.482c0.194 12.54 5.895 16.531 18.413 12.86 1.311-0.376 2.372-0.832 2.372-2.28a2.371 2.371 0 0 0-2.28-2.474c-0.97-0.137-1.973-0.091-2.953-0.148-7.56-0.456-10.809-5.78-8.21-13.203 0.845-2.405 2.646-2.679 4.664-2.69 7.4 0 14.821 0.136 22.198 0 4.218-0.103 5.928 1.619 5.347 5.7a10.078 10.078 0 0 0 0 1.482c0.114 14.137 3.124 16.475 17.534 13.681 1.471-0.285 3.215-0.41 3.181-2.28s-1.573-2.28-3.124-2.52c-0.73-0.09-1.482-0.068-2.211-0.113a9.554 9.554 0 0 1-7.776-14.035 3.614 3.614 0 0 1 3.717-1.767c7.89-0.057 15.79-0.069 23.68-0.103 2.93 0 4.72 1.14 4.56 4.344v2.953c0.205 13.989 3.34 16.383 17.66 13.533 1.505-0.297 3.192-0.513 3.192-2.349s-1.482-2.371-3.09-2.52c-0.74-0.068-1.481 0-2.222-0.102a9.212 9.212 0 0 1-7.696-13.567 3.9 3.9 0 0 1 4.184-2.28c7.65 0 15.3 0.09 22.939 0 3.044 0 4.674 1.037 4.651 4.195 0 0.98 0.114 1.973 0.149 2.953 0.558 14.263 3.1 16.224 17.648 13.681 1.471-0.262 3.204-0.285 3.204-2.28 0-1.767-1.539-2.28-3.078-2.542-0.73-0.103-1.47-0.092-2.212-0.149-7.81-0.615-10.74-5.233-8.47-13.008 0.729-2.497 2.45-2.839 4.491-2.862 3.99 0.308 7.947 0.342 11.891 0.342z" p-id="14934" fill="#242424"></path><path d="M802.72749 64.769a158.474 158.474 0 0 1 49.982 11.504c80.457 24.113 160.754 48.58 241.199 72.863q100.443 30.338 200.92 60.54 126.676 38.01 253.41 75.862c1.14 0.353 2.28 0.946 3.42 1.242 4.16 1.05 7.102 3.694 5.825 7.89-1.539 5.073-5.883 2.28-8.767 1.38-38.09-11.88-76.045-24.194-114.192-35.891q-124.67-38.239-249.5-75.999-120.565-36.483-241.244-72.75c-40.565-12.187-81.198-24.124-121.82-36.14a58.704 58.704 0 0 0-34.26 0.695q-106.815 32.265-213.597 64.643-119.516 36.221-239.01 72.522-135.353 41.283-270.637 82.794c-3.17 0.969-8.049 4.07-9.827-0.547-1.881-4.869 2.645-7.126 6.989-8.449q57.597-17.591 115.15-35.251 155.121-47.383 310.266-94.628 146.742-44.464 293.666-88.472a68.794 68.794 0 0 1 22.027-3.808z" p-id="14935" fill="#242424"></path></svg>